<svg class="canvas" viewBox="0 0 1920 1080" preserveAspectRatio="xMaxYMid slice" xmlns="http://www.w3.org/2000/svg" version="1.1" xmlns:xlink="http://www.w3.org/1999/xlink" xmlns:svgjs="http://svgjs.dev/svgjs"><rect width="1920" height="1080" fill="hsl(192, 65%, 15%)"></rect><defs><linearGradient x1="0.5" y1="0" x2="0" y2="1" id="SvgjsLinearGradient1056"><stop stop-color="#28778a" offset="0"></stop><stop stop-color="#090614" offset="0.1"></stop></linearGradient><linearGradient x1="0.5" y1="0" x2="0" y2="1" id="SvgjsLinearGradient1057"><stop stop-color="#288a8a" offset="0"></stop><stop stop-color="#060614" offset="0.22857142857142856"></stop></linearGradient><linearGradient x1="0.5" y1="0" x2="0" y2="1" id="SvgjsLinearGradient1058"><stop stop-color="#284f8a" offset="0"></stop><stop stop-color="#0e0614" offset="0.3571428571428571"></stop></linearGradient><linearGradient x1="0.5" y1="0" x2="0" y2="1" id="SvgjsLinearGradient1059"><stop stop-color="#c0e8f2" offset="0"></stop><stop stop-color="#5f42d7" offset="0.48571428571428565"></stop></linearGradient><linearGradient x1="0.5" y1="0" x2="0" y2="1" id="SvgjsLinearGradient1060"><stop stop-color="#c0e8f2" offset="0"></stop><stop stop-color="#5f42d7" offset="0.6142857142857142"></stop></linearGradient><linearGradient x1="0.5" y1="0" x2="0" y2="1" id="SvgjsLinearGradient1061"><stop stop-color="#c0e8f2" offset="0"></stop><stop stop-color="#5f42d7" offset="0.7428571428571429"></stop></linearGradient><linearGradient x1="0.5" y1="0" x2="0" y2="1" id="SvgjsLinearGradient1062"><stop stop-color="#c0e8f2" offset="0"></stop><stop stop-color="#5f42d7" offset="0.8714285714285713"></stop></linearGradient></defs><path d="M0,-518.791770344019C81.0501002930321,-501.22679720616503,319.50214928875107,-462.2636517127315,486.3006017581926,-413.40193151689516C653.0990542276342,-364.54021132105885,840.5639204835813,-269.11881399571325,1000.790714816649,-225.6214491690011C1161.0175091497167,-182.12408434228894,1294.4598202260406,-193.55602236078593,1447.661367756599,-152.41774255662227C1600.8629152871574,-111.27946275245861,1841.2768946260999,-7.729432379452934,1920,21.20822965598093L 1920 1080 L 0 1080 Z" fill="url(&quot;#SvgjsLinearGradient1056&quot;)"></path><path d="M0,-420.5933703446543C42.365708729464025,-408.72383639628515,159.93712820498493,-380.1748462430561,254.19425237678414,-349.3761666544392C348.4513765485833,-318.5774870658223,464.98169597123376,-261.1730580765069,565.5427450307952,-235.8012928129528C666.1037940903567,-210.4295275493987,765.4989102133193,-219.3998860097475,857.560546734153,-197.14557507311468C949.6221832549868,-174.89126413648188,1035.264905860257,-130.90845109985048,1117.912564155798,-102.27542719315592C1200.560222451339,-73.64240328646136,1267.379919298554,-51.318448504703696,1353.4464965073998,-25.347431632947348C1439.5130737162458,0.623585238808996,1539.886443493441,27.044044775047578,1634.3120274088744,53.55067403738213C1728.7376113243079,80.05730329971668,1872.385337901479,120.33539895711365,1920,133.69234394105996L 1920 1080 L 0 1080 Z" fill="url(&quot;#SvgjsLinearGradient1057&quot;)"></path><path d="M0,-294.65027592827636C54.39213855137237,-281.4962370352614,218.27574013418,-240.432127035587,326.3528313082342,-215.72604257018662C434.4299224822884,-191.01995810478624,536.9789809223759,-180.22105857052858,648.4625470443251,-146.41376913587405C759.9461131662744,-112.60647970121951,893.6655810334363,-45.33394306075869,995.2542280399297,-12.882305962259423C1096.8428750464232,19.569331136239846,1152.4674105289994,12.910269256851535,1257.9944290832855,48.296053455121545C1363.5214476375716,83.68183765339155,1518.0820775461943,161.82821602935553,1628.4163393656468,199.43239922736063C1738.7506011850992,237.03658242536574,1871.4027232276078,261.506360407187,1920,273.92115264315225L 1920 1080 L 0 1080 Z" fill="url(&quot;#SvgjsLinearGradient1058&quot;)"></path><path d="M0,-175.65193933557703C36.32552416912879,-167.01624008402354,129.2999915997232,-155.8990815545997,217.95314501477273,-123.83774382625612C306.60629842982223,-91.77640609791254,429.9739075217424,-15.484380717693107,531.9189204902972,16.716087034484467C633.863933458852,48.91655478666204,740.6557097595585,39.663321113078496,829.6232228261016,69.36506268680932C918.5907358926447,99.06680426054015,982.6385634639685,175.6691247772954,1065.7239988895556,194.92653647686942C1148.8094343151427,214.18394817644344,1222.7915915281228,165.25088048435768,1328.1358353796245,184.9095328842534C1433.4800792311262,204.5681852841491,1599.145434561836,275.8291724366916,1697.7894619985652,312.8784508762437C1796.4334894352944,349.9277293157958,1882.9649103330942,391.48407808067884,1920,407.20520352156586L 1920 1080 L 0 1080 Z" fill="url(&quot;#SvgjsLinearGradient1059&quot;)"></path><path d="M0,-75.6050002445806C85.17084721085034,-50.98155383725893,355.45720591710653,18.30792082294858,511.025083265102,72.13567819934943C666.5929606130975,125.96343557575028,777.1223375403177,193.67736823201946,933.4072640879731,247.3615440138245C1089.6921906356283,301.04571979562957,1284.3025198990297,348.544680742771,1448.734642551034,394.2407328901797C1613.1667652030385,439.9367850375884,1841.4557737585058,500.32166956359384,1920,521.5378568982767L 1920 1080 L 0 1080 Z" fill="url(&quot;#SvgjsLinearGradient1060&quot;)"></path><path d="M0,100.2581321419189C49.93863109279345,109.53461230841451,195.3873443794559,113.1930974387738,299.6317865567607,155.91701314089255C403.8762287340655,198.6409288430113,505.9104869636945,319.60222307163065,625.4666530638287,356.6016263546314C745.0228191639629,393.6010296376321,909.5486612680855,361.1032894568916,1016.9687831575661,377.913432838897C1124.3889050470466,394.7235762209024,1175.8175468028803,415.0309730091966,1269.987384400712,457.46248664666365C1364.1572219985437,499.8940002841307,1473.6523728113416,590.1318118430613,1581.9878087445563,632.5025146636991C1690.323244677771,674.8732174843369,1863.6646347907595,698.4893387526918,1920,711.6867035704903L 1920 1080 L 0 1080 Z" fill="url(&quot;#SvgjsLinearGradient1061&quot;)"></path><path d="M0,263.26693134221614C49.34841462671256,274.30426778490414,190.13195219399853,290.593104549481,296.0904877602754,329.49094999834426C402.04902332655223,368.38879544720754,522.6108015899906,455.78133872567116,635.7512133976611,496.65400403539576C748.8916252053316,537.5266693451204,862.6016652205604,538.0897969799772,974.9329586062986,574.7269418566918C1087.2642519920366,611.3640867334065,1212.6282063656447,674.4592302607361,1309.7389737120898,716.4768732956834C1406.8497410585348,758.4945163306306,1455.887391636984,798.0820761062386,1557.597562684969,826.832800066375C1659.3077337329541,855.5835240265113,1859.5995937808282,878.6231475581474,1920,888.9812170565019L 1920 1080 L 0 1080 Z" fill="url(&quot;#SvgjsLinearGradient1062&quot;)"></path></svg>